<svg width="184" height="84" viewBox="0 0 184 84" fill="none" xmlns="http://www.w3.org/2000/svg">
<g clip-path="url(#clip0)">
<path d="M9.09244 21.0361V48.1197H19.9987V55.7628H0V21.0361H9.09244Z" fill="white"/>
<path d="M23.3404 23.0643C23.3354 22.439 23.4615 21.8196 23.7106 21.2453C24.2003 20.1165 25.108 19.2173 26.2462 18.7333C26.8271 18.4909 27.4509 18.366 28.0811 18.366C28.7113 18.366 29.3351 18.4909 29.916 18.7333C31.0507 19.2192 31.9547 20.1182 32.4422 21.2453C32.6866 21.8211 32.8125 22.4395 32.8125 23.0643C32.8125 23.689 32.6866 24.3074 32.4422 24.8832C32.1961 25.4445 31.8427 25.9531 31.4017 26.3811C30.9694 26.8106 30.4589 27.1547 29.8972 27.3952C29.3163 27.6377 28.6925 27.7625 28.0623 27.7625C27.4322 27.7625 26.8084 27.6377 26.2275 27.3952C25.6658 27.1547 25.1553 26.8106 24.723 26.3811C24.2887 25.9515 23.9418 25.4429 23.7013 24.8832C23.4553 24.3082 23.3324 23.6888 23.3404 23.0643ZM32.2922 32.1355V55.7627H23.9028V32.1355H32.2922Z" fill="white"/>
<path d="M38.0476 32.1357H46.4464V35.1315C47.3556 33.9303 48.5503 32.9713 49.924 32.3403C51.2415 31.8424 52.6437 31.6023 54.0531 31.6332C55.5261 31.5944 56.9903 31.8704 58.3463 32.4427C59.5193 32.9669 60.5588 33.7458 61.388 34.7221C62.0591 35.4919 62.5405 36.406 62.7941 37.3923C63.053 38.4946 63.1774 39.6239 63.1643 40.7557V55.7675H54.7515V43.8353C54.7733 42.8843 54.6869 41.9339 54.4937 41.0022C54.3644 40.353 54.0505 39.7541 53.5891 39.2764C53.2397 38.9218 52.811 38.6541 52.3377 38.4948C51.8584 38.3384 51.3567 38.2599 50.852 38.2623C50.2453 38.2228 49.6372 38.3156 49.0704 38.5342C48.5037 38.7528 47.992 39.0918 47.5713 39.5276C46.8214 40.3742 46.4464 41.5806 46.4464 43.1468V55.7628H38.0476V32.1357Z" fill="white"/>
<path d="M77.2529 17.5378V40.658L86.0688 32.1356H97.5797L85.6517 43.0537L98.2733 55.7628H86.486L77.2529 46.1379V55.7628H68.8541V17.5378H77.2529Z" fill="white"/>
<path d="M119.791 22.6502C119.786 22.0249 119.912 21.4055 120.161 20.8312C120.404 20.273 120.751 19.7649 121.183 19.3333C121.616 18.9037 122.129 18.5596 122.692 18.3192C123.272 18.0766 123.895 17.9517 124.524 17.9517C125.154 17.9517 125.777 18.0766 126.357 18.3192C127.494 18.8029 128.4 19.7024 128.888 20.8312C129.132 21.407 129.258 22.0254 129.258 22.6502C129.258 23.2749 129.132 23.8933 128.888 24.4691C128.4 25.5979 127.494 26.4974 126.357 26.9811C125.777 27.2237 125.154 27.3487 124.524 27.3487C123.895 27.3487 123.272 27.2237 122.692 26.9811C122.129 26.7407 121.616 26.3966 121.183 25.967C120.751 25.5354 120.404 25.0273 120.161 24.4691C119.912 23.8948 119.786 23.2754 119.791 22.6502ZM128.747 31.7214V55.3579H120.348V31.7214H128.747Z" fill="white"/>
<path d="M134.512 31.7217H142.911V34.7175C143.821 33.516 145.018 32.557 146.393 31.9263C147.71 31.4248 149.112 31.1815 150.522 31.21C151.995 31.1722 153.459 31.4482 154.815 32.0194C155.988 32.5424 157.026 33.3216 157.852 34.2988C158.523 35.0686 159.005 35.9827 159.258 36.969C159.52 38.071 159.644 39.2005 159.629 40.3324V55.3581H151.202V43.4213C151.222 42.4706 151.137 41.5205 150.949 40.5883C150.817 39.9397 150.504 39.3414 150.044 38.8624C149.695 38.5078 149.266 38.2401 148.793 38.0809C148.313 37.9244 147.811 37.8459 147.307 37.8483C145.882 37.8483 144.788 38.27 144.026 39.1136C143.264 39.9571 142.884 41.162 142.887 42.7281V55.3581H134.512V31.7217Z" fill="white"/>
<path d="M103.26 0V20.2685H112.634V9.30387H174.626V63.9967H112.634V58.6144H103.26V73.3006H184V0H103.26Z" fill="#EF7C00"/>
<path d="M103.26 51.0085C103.256 50.3834 103.382 49.7642 103.63 49.1896C104.12 48.0634 105.026 47.1661 106.161 46.6822C106.741 46.4397 107.364 46.3147 107.994 46.3147C108.623 46.3147 109.246 46.4397 109.826 46.6822C110.959 47.1682 111.863 48.065 112.353 49.1896C112.597 49.7654 112.723 50.3838 112.723 51.0085C112.723 51.6333 112.597 52.2517 112.353 52.8275C111.865 53.9546 110.961 54.8536 109.826 55.3395C109.246 55.5821 108.623 55.707 107.994 55.707C107.364 55.707 106.741 55.5821 106.161 55.3395C105.024 54.8558 104.118 53.9563 103.63 52.8275C103.381 52.2532 103.255 51.6338 103.26 51.0085Z" fill="#EF7C00"/>
<path d="M111.078 79.311H112.104L110.492 84.0002H109.554L107.961 79.311H109.011L110.037 82.8698L111.078 79.311Z" fill="white"/>
<path d="M115.765 84.0002H114.785V79.311H115.765V84.0002Z" fill="white"/>
<path d="M118.877 79.311H119.866V83.1535H122.209V84.0002H118.863L118.877 79.311Z" fill="white"/>
<path d="M126.427 79.311H127.547L129.216 84.0002H128.147L127.833 83.0326H126.076L125.757 84.0002H124.726L126.427 79.311ZM126.361 82.2278H127.575L126.975 80.367L126.361 82.2278Z" fill="white"/>
<path d="M138.917 79.311H140.323V84.0002H139.386V80.8276C139.386 80.7345 139.386 80.6089 139.386 80.4461C139.386 80.2833 139.386 80.153 139.386 80.0646L138.491 84.0002H137.53L136.644 80.0646V80.4461C136.644 80.6089 136.644 80.7345 136.644 80.8276V84.0002H135.707V79.311H137.141L137.999 82.9954L138.917 79.311Z" fill="white"/>
<path d="M144.79 79.311H145.905L147.579 84.0002H146.505L146.196 83.0326H144.457L144.139 84.0002H143.103L144.79 79.311ZM144.724 82.2278H145.934L145.338 80.367L144.724 82.2278Z" fill="white"/>
<path d="M153.395 79.432C153.567 79.5042 153.72 79.6158 153.84 79.7576C153.939 79.8765 154.018 80.0099 154.075 80.153C154.137 80.3098 154.168 80.4775 154.164 80.6461C154.163 80.8752 154.105 81.1005 153.995 81.3021C153.937 81.4131 153.858 81.5115 153.761 81.5914C153.665 81.6713 153.553 81.7311 153.433 81.7673C153.628 81.8334 153.793 81.965 153.901 82.1394C154.006 82.3699 154.052 82.6221 154.037 82.8744V83.1861C154.032 83.3324 154.041 83.4789 154.065 83.6234C154.074 83.6778 154.094 83.7298 154.125 83.7756C154.155 83.8214 154.196 83.8599 154.243 83.8885V84.0095H153.156C153.128 83.9025 153.104 83.8188 153.09 83.7583C153.067 83.6245 153.053 83.4893 153.048 83.3536V82.9163C153.07 82.7059 153.015 82.4947 152.894 82.3208C152.733 82.2005 152.531 82.1456 152.331 82.1673H151.366V84.0281H150.4V79.311H152.659C152.91 79.3055 153.16 79.3465 153.395 79.432ZM151.356 80.1251V81.4091H152.42C152.58 81.4167 152.74 81.3897 152.889 81.33C152.984 81.2808 153.061 81.2043 153.112 81.1105C153.162 81.0166 153.182 80.9099 153.17 80.8043C153.185 80.6931 153.167 80.5801 153.119 80.4787C153.07 80.3773 152.994 80.2917 152.898 80.2321C152.751 80.166 152.59 80.1372 152.43 80.1484L151.356 80.1251Z" fill="white"/>
<path d="M158.199 84.0002H157.22V79.311H158.199V84.0002Z" fill="white"/>
<path d="M162.666 79.311H163.781L165.445 84.0002H164.372L164.062 83.0326H162.323L162 84.0002H160.969L162.666 79.311ZM162.6 82.2278H163.809L163.214 80.367L162.6 82.2278Z" fill="white"/>
<path d="M168.229 79.311H169.265L171.139 82.5674V79.311H172.077V84.0002H171.069L169.147 80.674V84.0002H168.21L168.229 79.311Z" fill="white"/>
<path d="M176.525 79.311H177.631L179.304 84.0002H178.24L177.931 83.0326H176.192L175.873 84.0002H174.818L176.525 79.311ZM176.459 82.2278H177.668L177.073 80.367L176.459 82.2278Z" fill="white"/>
</g>
<defs>
<clipPath id="clip0">
<rect width="184" height="84" fill="white"/>
</clipPath>
</defs>
</svg>
