<svg width="165" height="75" viewBox="0 0 165 75" fill="none" xmlns="http://www.w3.org/2000/svg">
<g clip-path="url(#clip0)">
<path d="M8.11825 18.7822V42.964H17.856V49.7882H0V18.7822H8.11825Z" fill="white"/>
<path d="M20.8396 20.5931C20.8351 20.0349 20.9477 19.4818 21.1702 18.9691C21.6074 17.9612 22.4178 17.1583 23.4341 16.7262C23.9528 16.5097 24.5098 16.3982 25.0724 16.3982C25.6351 16.3982 26.192 16.5097 26.7107 16.7262C27.7238 17.16 28.531 17.9627 28.9662 18.9691C29.1844 19.4831 29.2969 20.0353 29.2969 20.5931C29.2969 21.1509 29.1844 21.7031 28.9662 22.2171C28.7465 22.7183 28.431 23.1725 28.0372 23.5546C27.6513 23.9381 27.1954 24.2453 26.694 24.46C26.1753 24.6765 25.6183 24.788 25.0557 24.788C24.493 24.788 23.936 24.6765 23.4174 24.46C22.9159 24.2453 22.4601 23.9381 22.0741 23.5546C21.6863 23.171 21.3766 22.7169 21.1618 22.2171C20.9422 21.7038 20.8325 21.1508 20.8396 20.5931ZM28.8323 28.6925V49.7882H21.3418V28.6925H28.8323Z" fill="white"/>
<path d="M33.9711 28.6925H41.47V31.3673C42.2817 30.2948 43.3485 29.4386 44.575 28.8752C45.7514 28.4306 47.0033 28.2163 48.2617 28.2439C49.5768 28.2092 50.8841 28.4556 52.0948 28.9666C53.1422 29.4346 54.0704 30.1301 54.8107 31.0018C55.4099 31.6891 55.8397 32.5053 56.0661 33.3859C56.2973 34.3701 56.4083 35.3784 56.3967 36.3889V49.7923H48.8852V39.1385C48.9047 38.2895 48.8275 37.4409 48.6551 36.6091C48.5396 36.0294 48.2593 35.4947 47.8474 35.0681C47.5354 34.7515 47.1526 34.5125 46.7301 34.3703C46.3021 34.2307 45.8541 34.1605 45.4036 34.1626C44.8618 34.1274 44.3189 34.2103 43.8128 34.4054C43.3068 34.6006 42.8499 34.9033 42.4743 35.2924C41.8048 36.0483 41.47 37.1255 41.47 38.5238V49.7882H33.9711V28.6925Z" fill="white"/>
<path d="M68.9758 15.6588V36.3017L76.8472 28.6925H87.1247L76.4748 38.4408L87.7441 49.7882H77.2196L68.9758 41.1946V49.7882H61.4769V15.6588H68.9758Z" fill="white"/>
<path d="M106.956 20.2235C106.951 19.6652 107.064 19.1122 107.286 18.5994C107.504 18.101 107.813 17.6474 108.199 17.262C108.586 16.8784 109.043 16.5712 109.546 16.3565C110.064 16.14 110.62 16.0284 111.182 16.0284C111.744 16.0284 112.301 16.14 112.819 16.3565C113.834 16.7884 114.643 17.5915 115.078 18.5994C115.296 19.1135 115.409 19.6657 115.409 20.2235C115.409 20.7813 115.296 21.3334 115.078 21.8475C114.643 22.8554 113.834 23.6585 112.819 24.0904C112.301 24.307 111.744 24.4186 111.182 24.4186C110.62 24.4186 110.064 24.307 109.546 24.0904C109.043 23.8758 108.586 23.5685 108.199 23.1849C107.813 22.7996 107.504 22.3459 107.286 21.8475C107.064 21.3348 106.951 20.7817 106.956 20.2235ZM114.953 28.3228V49.4268H107.454V28.3228H114.953Z" fill="white"/>
<path d="M120.1 28.3228H127.599V30.9977C128.412 29.9249 129.48 29.0687 130.708 28.5056C131.884 28.0578 133.136 27.8405 134.395 27.8659C135.71 27.8322 137.017 28.0787 138.228 28.5886C139.275 29.0556 140.202 29.7513 140.939 30.6239C141.539 31.3111 141.968 32.1274 142.195 33.008C142.428 33.9918 142.539 35.0003 142.525 36.011V49.4268H135.001V38.7689C135.02 37.9201 134.944 37.0718 134.775 36.2394C134.658 35.6604 134.378 35.1261 133.968 34.6985C133.656 34.3819 133.273 34.1428 132.851 34.0007C132.422 33.861 131.975 33.7909 131.524 33.793C130.252 33.793 129.275 34.1696 128.595 34.9227C127.914 35.6759 127.575 36.7517 127.578 38.15V49.4268H120.1V28.3228Z" fill="white"/>
<path d="M92.1965 0V18.0969H100.566V8.30703H155.916V57.1399H100.566V52.3343H92.1965V65.4469H164.286V0H92.1965Z" fill="#EF7C00"/>
<path d="M92.1965 45.5433C92.1929 44.9851 92.3054 44.4322 92.5271 43.9193C92.9642 42.9137 93.7729 42.1125 94.7868 41.6805C95.3047 41.4639 95.861 41.3524 96.423 41.3524C96.985 41.3524 97.5413 41.4639 98.0592 41.6805C99.0709 42.1144 99.8776 42.9151 100.315 43.9193C100.533 44.4333 100.645 44.9855 100.645 45.5433C100.645 46.1011 100.533 46.6533 100.315 47.1673C99.8795 48.1737 99.0724 48.9764 98.0592 49.4102C97.5413 49.6268 96.985 49.7384 96.423 49.7384C95.861 49.7384 95.3047 49.6268 94.7868 49.4102C93.7714 48.9783 92.9622 48.1752 92.5271 47.1673C92.3046 46.6546 92.192 46.1015 92.1965 45.5433Z" fill="#EF7C00"/>
<path d="M99.1765 70.8133H100.093L98.6534 75H97.8165L96.3937 70.8133H97.3311L98.2475 73.9907L99.1765 70.8133Z" fill="white"/>
<path d="M103.361 75H102.487V70.8133H103.361V75Z" fill="white"/>
<path d="M106.14 70.8133H107.023V74.2441H109.115V75H106.127L106.14 70.8133Z" fill="white"/>
<path d="M112.881 70.8133H113.881L115.371 75H114.417L114.137 74.1361H112.567L112.283 75H111.362L112.881 70.8133ZM112.823 73.4175H113.907L113.371 71.7561L112.823 73.4175Z" fill="white"/>
<path d="M124.033 70.8133H125.289V75H124.452V72.1673C124.452 72.0842 124.452 71.9721 124.452 71.8267C124.452 71.6813 124.452 71.565 124.452 71.4861L123.653 75H122.795L122.004 71.4861V71.8267C122.004 71.9721 122.004 72.0842 122.004 72.1673V75H121.167V70.8133H122.447L123.213 74.1028L124.033 70.8133Z" fill="white"/>
<path d="M129.277 70.8133H130.273L131.767 75H130.808L130.532 74.1361H128.98L128.695 75H127.77L129.277 70.8133ZM129.218 73.4175H130.298L129.766 71.7561L129.218 73.4175Z" fill="white"/>
<path d="M136.96 70.9212C137.114 70.9857 137.25 71.0853 137.357 71.212C137.445 71.3181 137.516 71.4372 137.567 71.565C137.623 71.705 137.65 71.8547 137.646 72.0053C137.645 72.2098 137.593 72.411 137.496 72.591C137.444 72.6901 137.373 72.7779 137.287 72.8493C137.201 72.9207 137.101 72.974 136.993 73.0063C137.168 73.0654 137.316 73.1829 137.412 73.3386C137.505 73.5444 137.547 73.7696 137.533 73.9948V74.2731C137.529 74.4038 137.537 74.5345 137.558 74.6635C137.566 74.7121 137.584 74.7585 137.611 74.7994C137.639 74.8403 137.675 74.8748 137.717 74.9003V75.0083H136.746C136.721 74.9128 136.7 74.838 136.688 74.784C136.667 74.6645 136.654 74.5438 136.65 74.4226V74.0322C136.669 73.8443 136.62 73.6558 136.512 73.5006C136.368 73.3931 136.189 73.3441 136.01 73.3635H135.148V75.0249H134.286V70.8133H136.303C136.527 70.8083 136.75 70.8449 136.96 70.9212ZM135.14 71.5401V72.6865H136.089C136.232 72.6933 136.375 72.6692 136.508 72.6159C136.593 72.572 136.662 72.5037 136.707 72.4199C136.752 72.3361 136.77 72.2408 136.759 72.1465C136.772 72.0472 136.756 71.9463 136.713 71.8558C136.67 71.7652 136.602 71.6888 136.516 71.6356C136.385 71.5766 136.241 71.5509 136.098 71.5609L135.14 71.5401Z" fill="white"/>
<path d="M141.249 75H140.375V70.8133H141.249V75Z" fill="white"/>
<path d="M145.237 70.8133H146.233L147.719 75H146.76L146.484 74.1361H144.932L144.643 75H143.722L145.237 70.8133ZM145.179 73.4175H146.258L145.727 71.7561L145.179 73.4175Z" fill="white"/>
<path d="M150.204 70.8133H151.129L152.803 73.7207V70.8133H153.64V75H152.74L151.025 72.0302V75H150.188L150.204 70.8133Z" fill="white"/>
<path d="M157.611 70.8133H158.599L160.093 75H159.143L158.867 74.1361H157.314L157.03 75H156.088L157.611 70.8133ZM157.553 73.4175H158.632L158.101 71.7561L157.553 73.4175Z" fill="white"/>
</g>
<defs>
<clipPath id="clip0">
<rect width="164.286" height="75" fill="white"/>
</clipPath>
</defs>
</svg>
